{"title":"Future Sound Of London - Papua New Guinea VOB lpcm mixmash pal","uid":11121769,"size":493082624,"categoryP":"video","categoryS":"music_videos","magnet":"?xt=urn:btih:2ccafe1229cd553ba35b5b25a454ea152eaf0087&amp;dn=Future+Sound+Of+London+-+Papua+New+Guinea+VOB+lpcm+mixmash+pal&amp;tr=udp%3A%2F%2Ftracker.openbittorrent.com%3A80&amp;tr=udp%3A%2F%2Fopen.demonii.com%3A1337&amp;tr=udp%3A%2F%2Ftracker.coppersurfer.tk%3A6969&amp;tr=udp%3A%2F%2Fexodus.desync.com%3A6969","seeders":2,"leechers":0,"uploader":"parbulo","files":-1,"time":1411923404,"description":"Future Sound Of London : Papua New Guinea From MixMash DVD \n\ncaps:\n\n\n\n\nalso available on vhs : &lt;a href=&quot;\nhttp://www.discogs.com/Various-Future-Shock/release/408128&quot; rel=&quot;nofollow&quot; target=&quot;_NEW&quot;&gt;\nhttp://www.discogs.com/Various-Future-Shock/release/408128&lt;/a&gt;\n\n************media info**********\n\neneral\nComplete name : D:Descargas13.Future.Sound.Of.London.-.Papua.New.Guinea__Vip-Files.Net__ (1).vob\nFormat : MPEG-PS\nFile size : 470 MiB\nDuration : 6mn 46s\nOverall bit rate mode : Variable\nOverall bit rate : 9 708 Kbps\nWriting library : http://vip-files.net\n\nVideo\nID : 224 (0xE0)\nFormat : MPEG Video\nFormat version : Version 2\nFormat profile : Main@Main\nFormat settings, BVOP : Yes\nFormat settings, Matrix : Custom\nFormat settings, GOP : M=3, N=15\nDuration : 6mn 46s\nBit rate mode : Variable\nBit rate : 8 000 Kbps\nWidth : 720 pixels\nHeight : 576 pixels\nDisplay aspect ratio : 4:3\nFrame rate : 25.000 fps\nStandard : PAL\nColor space : YUV\nChroma subsampling : 4:2:0\nBit depth : 8 bits\nScan type : Interlaced\nScan order : Bottom Field First\nCompression mode : Lossy\nBits/(Pixel*Frame) : 0.772\nTime code of first frame : 00:00:00:00\nTime code source : Group of pictures header\nStream size : 386 MiB (82%)\nWriting library : http://vip-files.net\n\nAudio\nID : 189 (0xBD)-160 (0xA0)\nFormat : PCM\nFormat settings, Endianness : Big\nFormat settings, Sign : Signed\nMuxing mode : DVD-Video\nDuration : 6mn 46s\nBit rate mode : Constant\nBit rate : 1 536 Kbps\nChannel(s) : 2 channels\nSampling rate : 48.0 KHz\nBit depth : 16 bits\nDelay relative to video : -80ms\nStream size : 74.4 MiB (16%)","torrent":{"xt":"urn:btih:2ccafe1229cd553ba35b5b25a454ea152eaf0087","amp;dn":"Future+Sound+Of+London+-+Papua+New+Guinea+VOB+lpcm+mixmash+pal","amp;tr":["udp%3A%2F%2Ftracker.openbittorrent.com%3A80","udp%3A%2F%2Fopen.demonii.com%3A1337","udp%3A%2F%2Ftracker.coppersurfer.tk%3A6969","udp%3A%2F%2Fexodus.desync.com%3A6969"],"infoHash":"2ccafe1229cd553ba35b5b25a454ea152eaf0087","infoHashBuffer":{"type":"Buffer","data":[44,202,254,18,41,205,85,59,163,91,91,37,164,84,234,21,46,175,0,135]},"announce":[],"urlList":[]}}